<?xml version="1.0" encoding="UTF-8"?>
<svg id="Color_A" xmlns="http://www.w3.org/2000/svg" xmlns:xlink="http://www.w3.org/1999/xlink" viewBox="0 0 2161.37 1024">
  <defs>
    <style>
      .cls-1 {
        clip-path: url(#clippath-4);
      }

      .cls-2 {
        clip-path: url(#clippath-1);
      }

      .cls-3 {
        clip-path: url(#clippath-5);
      }

      .cls-4 {
        clip-path: url(#clippath-3);
      }

      .cls-5 {
        clip-path: url(#clippath-2);
      }

      .cls-6 {
        fill: #ff2ebb;
      }

      .cls-7 {
        clip-path: url(#clippath);
      }

      .cls-8 {
        fill: #00b2ff;
      }
    </style>
    <clipPath id="clippath">
      <path class="cls-8" d="M206.19,25.08l181.74,307.79c3.91,6.58,13.21,6.58,13.6,0l15.9-307.79c.17-2.94,2.38-4.93,5.48-4.93h85.92c4.91,0,9.66,4.84,9.3,9.48l-39.07,518.69c-.22,2.88-2.42,4.82-5.47,4.82h-99.7c-3.04,0-6.27-1.93-8.04-4.8L55.36,29.65c-2.86-4.65-.71-9.5,4.21-9.5h138.5c3.09,0,6.37,1.99,8.12,4.93Z"/>
    </clipPath>
    <clipPath id="clippath-1">
      <path class="cls-8" d="M602.57,85.79c2.74,10.24,2.42,17.58-.97,22.02-3.39,4.44-10.88,6.67-22.46,6.67s-20.26-2.22-26.03-6.67c-5.78-4.45-10.03-11.78-12.77-22.02-2.67-9.96-2.33-17.24,1.02-21.82,3.35-4.58,10.82-6.87,22.41-6.87s20.28,2.29,26.09,6.87c5.81,4.58,10.05,11.86,12.72,21.82ZM555.09,132.49h55.75c3.45,0,7,2.8,7.93,6.25l94.96,316.77c.93,3.45-1.12,6.25-4.58,6.25h-55.75c-3.45,0-7-2.8-7.93-6.25l-94.96-316.77c-.93-3.45,1.12-6.25,4.58-6.25Z"/>
    </clipPath>
    <clipPath id="clippath-2">
      <path class="cls-6" d="M869.33,263.37l35.06-105.65c.92-2.13.19-4.96-1.85-7.11l-8.37-8.82c-1.62-1.71-3.83-2.74-5.9-2.74l-33.17-.74c-2.13,0-3.82,1.08-4.49,2.87l-28,74.4c-1.45,3.86-7.13,3.81-10.6-.09l-65.86-74.21c-1.63-1.84-3.94-2.96-6.11-2.96h-61.33c-5.03,0-6.49,5.63-2.54,9.78l112.25,117.91c2.04,2.14,2.79,4.97,1.87,7.1l-54.99,128.38c-1.78,4.15,2.71,9.83,7.76,9.83h72.7c2.1,0,3.78-1.06,4.47-2.82l17.83-85.77c1.47-3.77,7.02-3.75,10.48.04l78.39,85.69c1.63,1.78,3.89,2.86,6.02,2.86h41.6c2.07,0,3.73-1.02,4.44-2.73l6.07-14.71c.88-2.14.11-4.96-1.93-7.08l-111.9-116.26c-2.07-2.15-2.83-5.01-1.9-7.16Z"/>
    </clipPath>
    <clipPath id="clippath-3">
      <path class="cls-6" d="M1136.87,283.45c-2.03-2.13-2.8-4.94-1.89-7.09l81.39-192.61c1.76-4.16-2.75-9.82-7.79-9.82h-75.99c-2.15,0-3.84,1.09-4.51,2.89l-50.43,135.5c-1.43,3.83-6.98,3.86-10.47.07l-125.45-135.64c-1.64-1.76-3.88-2.82-5.98-2.82h-77.37c-5.01,0-6.47,5.64-2.54,9.77l182.96,192.68c2.01,2.13,2.77,4.92,1.89,7.05l-82.41,219.33c-1.58,4.22,3.4,7.82,6.91,4.99,22.92-18.42,48.07-34.28,74.97-47.19,11.12-5.35,22.46-10.27,34.03-14.77,1.35-.52,2.35-1.66,2.69-3.07l22.74-93.46c1.46-3.79,7-3.79,10.49,0l58.74,67.87c1.01,1.17,2.56,1.72,4.08,1.46,22.77-3.87,45.89-6.23,69.17-7.01,3.75-.13,5.65-4.57,3.14-7.37l-108.37-120.76Z"/>
    </clipPath>
    <clipPath id="clippath-4">
      <path class="cls-6" d="M1370.89,259.53l47.27-108.3c1.7-3.89-2.55-9.25-7.33-9.25h-53.39c-2.01,0-3.61,1.01-4.24,2.69l-26.46,69.93c-1.37,3.63-6.74,3.58-10.02-.09l-62.25-69.75c-1.54-1.73-3.73-2.78-5.77-2.78h-40.46c-1.94,0-3.5.95-4.18,2.54l-4.32,10.16c-.85,2-.14,4.65,1.78,6.66l92.91,100.66c1.93,2.02,2.63,4.67,1.77,6.68l-45.71,106.12c-.87,2.01-.15,4.68,1.79,6.69l14.01,14.56c1.53,1.59,3.61,2.54,5.55,2.54h48.44c1.99,0,3.58-1,4.22-2.65l16.85-80.62c1.39-3.55,6.63-3.53,9.91.04l74.1,80.54c1.54,1.67,3.68,2.69,5.69,2.69h58.44c4.77,0,6.14-5.33,2.37-9.23l-119.16-123.1c-1.96-2.02-2.68-4.71-1.8-6.73Z"/>
    </clipPath>
    <clipPath id="clippath-5">
      <path class="cls-8" d="M2088.77,470.3l-95.46-356.27c-.75-2.79-3.62-5.06-6.41-5.06h-81.87c-2.79,0-4.45,2.26-3.7,5.06l62.41,202.85c1.33,4.96-4.54,6.95-8.45,2.87-4.67-2.21-201.41-210.77-208.17-210.77-1.37,0-52.68,0-52.68,0-2.79,0-4.45,2.26-3.7,5.06l61.61,229.92c1.27,4.73-2.27,9.39-7.17,9.43-35.21.29-97.75.43-107.26.43-35.29-2.32-79.19,10.16-95.73-27.58-.82-5.19-14.42-26.35-2.93-27.58,0,0,115.2,0,115.2,0,34.44-.88,30.82-24.36,23.27-50.95-6.89-28.25-18.62-55.02-42.21-72.91-34.96-28.48-102.75-31.86-143.7-18.23-46.85,17.05-39.87,66.14-28.79,107.97,6,23.42,13.83,53.06,24.38,72.68,25.74,54.63,86.07,66.35,143.4,63.33,25.99-.51,76.66.36,127.8-.11,3.42,0,6.42,2.31,7.27,5.63,27.76,108.64-38.54,139.49-100.1,139.49-111.55-9.04-228.37-94.89-329.38-105.17-149.02-22.99-317.95,20.95-413.72,142.94-95.43,115.56-99.1,301.37,1.01,416.17,6.06,7.35,18.56,6.17,22.83-2.28,51.05-93.16,108.66-203.17,218.89-233.66,160.21-44.31,251.22-20.81,397.46,9.1,118.56,24.25,246.5-7.78,291.96-128.42,26.69-70.82,9.38-130.09-15.28-236.89,1.06,4.58-25.79-101.28-25.13-105.38-1.33-4.96,4.52-6.95,8.44-2.88,4.03,2.49,128.27,129.39,164.37,166.3,6.24,6.38,14.78,9.97,23.7,9.97h74.14c2.79,0,4.45-2.26,3.7-5.05ZM1519.38,247.84c-10.06-36.67-5.74-54.48,36.23-52.95,38.67-1.48,56.49,16.44,64.24,53.11.93,3.45-1.12,6.25-4.58,6.25h-87.92c-3.51,0-7.1-2.9-7.97-6.41ZM1097.8,663.35c-17.63,18.22-58.98,72.09-69.94,128.25-.4,14.1,28.36-15.52,40.57-15.14,2.74.08,4.61,3.07,2.14,4.74-25.65,19.51-50.54,47.06-76.11,84.19-16.99,24.8-36.57,57.51-54,89.84-3.78,6.94-13.63,7.41-17.97.81-48.48-72.85-62.09-180.63-30.25-266.18,1.54-4.33,4.07-3.84,4.4.74,4.72,90.86,22-83.93,168.64-115.31,5.78-1.53,8.27,5.11,4.23,9.52-29.05,31.69-41.16,57.61-54.88,93.08-1.7,4.4,2.25,8.81,6.65,7.13,4.72-.04,98.86-49.84,76.51-21.67Z"/>
    </clipPath>
  </defs>
  <g>
    <path class="cls-8" d="M206.19,25.08l181.74,307.79c3.91,6.58,13.21,6.58,13.6,0l15.9-307.79c.17-2.94,2.38-4.93,5.48-4.93h85.92c4.91,0,9.66,4.84,9.3,9.48l-39.07,518.69c-.22,2.88-2.42,4.82-5.47,4.82h-99.7c-3.04,0-6.27-1.93-8.04-4.8L55.36,29.65c-2.86-4.65-.71-9.5,4.21-9.5h138.5c3.09,0,6.37,1.99,8.12,4.93Z"/>
    <g class="cls-7">
      <rect class="cls-8" x="-.5" y="-105.41" width="1386.72" height="686.55"/>
      <rect class="cls-8" x="-63.53" y="-229.94" width="2152.47" height="1042.55"/>
    </g>
  </g>
  <g>
    <path class="cls-8" d="M602.57,85.79c2.74,10.24,2.42,17.58-.97,22.02-3.39,4.44-10.88,6.67-22.46,6.67s-20.26-2.22-26.03-6.67c-5.78-4.45-10.03-11.78-12.77-22.02-2.67-9.96-2.33-17.24,1.02-21.82,3.35-4.58,10.82-6.87,22.41-6.87s20.28,2.29,26.09,6.87c5.81,4.58,10.05,11.86,12.72,21.82ZM555.09,132.49h55.75c3.45,0,7,2.8,7.93,6.25l94.96,316.77c.93,3.45-1.12,6.25-4.58,6.25h-55.75c-3.45,0-7-2.8-7.93-6.25l-94.96-316.77c-.93-3.45,1.12-6.25,4.58-6.25Z"/>
    <g class="cls-2">
      <rect class="cls-8" x="33.75" y="-359.41" width="2152.47" height="1042.55" transform="translate(2219.97 323.74) rotate(180)"/>
    </g>
  </g>
  <g>
    <path class="cls-6" d="M869.33,263.37l35.06-105.65c.92-2.13.19-4.96-1.85-7.11l-8.37-8.82c-1.62-1.71-3.83-2.74-5.9-2.74l-33.17-.74c-2.13,0-3.82,1.08-4.49,2.87l-28,74.4c-1.45,3.86-7.13,3.81-10.6-.09l-65.86-74.21c-1.63-1.84-3.94-2.96-6.11-2.96h-61.33c-5.03,0-6.49,5.63-2.54,9.78l112.25,117.91c2.04,2.14,2.79,4.97,1.87,7.1l-54.99,128.38c-1.78,4.15,2.71,9.83,7.76,9.83h72.7c2.1,0,3.78-1.06,4.47-2.82l17.83-85.77c1.47-3.77,7.02-3.75,10.48.04l78.39,85.69c1.63,1.78,3.89,2.86,6.02,2.86h41.6c2.07,0,3.73-1.02,4.44-2.73l6.07-14.71c.88-2.14.11-4.96-1.93-7.08l-111.9-116.26c-2.07-2.15-2.83-5.01-1.9-7.16Z"/>
    <g class="cls-5">
      <rect class="cls-6" x="30.59" y="-359.41" width="2152.47" height="1042.55" transform="translate(2213.66 323.74) rotate(180)"/>
    </g>
  </g>
  <g>
    <path class="cls-6" d="M1136.87,283.45c-2.03-2.13-2.8-4.94-1.89-7.09l81.39-192.61c1.76-4.16-2.75-9.82-7.79-9.82h-75.99c-2.15,0-3.84,1.09-4.51,2.89l-50.43,135.5c-1.43,3.83-6.98,3.86-10.47.07l-125.45-135.64c-1.64-1.76-3.88-2.82-5.98-2.82h-77.37c-5.01,0-6.47,5.64-2.54,9.77l182.96,192.68c2.01,2.13,2.77,4.92,1.89,7.05l-82.41,219.33c-1.58,4.22,3.4,7.82,6.91,4.99,22.92-18.42,48.07-34.28,74.97-47.19,11.12-5.35,22.46-10.27,34.03-14.77,1.35-.52,2.35-1.66,2.69-3.07l22.74-93.46c1.46-3.79,7-3.79,10.49,0l58.74,67.87c1.01,1.17,2.56,1.72,4.08,1.46,22.77-3.87,45.89-6.23,69.17-7.01,3.75-.13,5.65-4.57,3.14-7.37l-108.37-120.76Z"/>
    <g class="cls-4">
      <rect class="cls-6" x="193.49" y="-214.05" width="2152.47" height="1491.43" transform="translate(2539.46 1063.32) rotate(180)"/>
    </g>
  </g>
  <g>
    <path class="cls-6" d="M1370.89,259.53l47.27-108.3c1.7-3.89-2.55-9.25-7.33-9.25h-53.39c-2.01,0-3.61,1.01-4.24,2.69l-26.46,69.93c-1.37,3.63-6.74,3.58-10.02-.09l-62.25-69.75c-1.54-1.73-3.73-2.78-5.77-2.78h-40.46c-1.94,0-3.5.95-4.18,2.54l-4.32,10.16c-.85,2-.14,4.65,1.78,6.66l92.91,100.66c1.93,2.02,2.63,4.67,1.77,6.68l-45.71,106.12c-.87,2.01-.15,4.68,1.79,6.69l14.01,14.56c1.53,1.59,3.61,2.54,5.55,2.54h48.44c1.99,0,3.58-1,4.22-2.65l16.85-80.62c1.39-3.55,6.63-3.53,9.91.04l74.1,80.54c1.54,1.67,3.68,2.69,5.69,2.69h58.44c4.77,0,6.14-5.33,2.37-9.23l-119.16-123.1c-1.96-2.02-2.68-4.71-1.8-6.73Z"/>
    <g class="cls-1">
      <rect class="cls-6" x="97.51" y="-329.3" width="2034.73" height="979.94" transform="translate(2229.75 321.35) rotate(180)"/>
    </g>
  </g>
  <g>
    <path class="cls-8" d="M2088.77,470.3l-95.46-356.27c-.75-2.79-3.62-5.06-6.41-5.06h-81.87c-2.79,0-4.45,2.26-3.7,5.06l62.41,202.85c1.33,4.96-4.54,6.95-8.45,2.87-4.67-2.21-201.41-210.77-208.17-210.77-1.37,0-52.68,0-52.68,0-2.79,0-4.45,2.26-3.7,5.06l61.61,229.92c1.27,4.73-2.27,9.39-7.17,9.43-35.21.29-97.75.43-107.26.43-35.29-2.32-79.19,10.16-95.73-27.58-.82-5.19-14.42-26.35-2.93-27.58,0,0,115.2,0,115.2,0,34.44-.88,30.82-24.36,23.27-50.95-6.89-28.25-18.62-55.02-42.21-72.91-34.96-28.48-102.75-31.86-143.7-18.23-46.85,17.05-39.87,66.14-28.79,107.97,6,23.42,13.83,53.06,24.38,72.68,25.74,54.63,86.07,66.35,143.4,63.33,25.99-.51,76.66.36,127.8-.11,3.42,0,6.42,2.31,7.27,5.63,27.76,108.64-38.54,139.49-100.1,139.49-111.55-9.04-228.37-94.89-329.38-105.17-149.02-22.99-317.95,20.95-413.72,142.94-95.43,115.56-99.1,301.37,1.01,416.17,6.06,7.35,18.56,6.17,22.83-2.28,51.05-93.16,108.66-203.17,218.89-233.66,160.21-44.31,251.22-20.81,397.46,9.1,118.56,24.25,246.5-7.78,291.96-128.42,26.69-70.82,9.38-130.09-15.28-236.89,1.06,4.58-25.79-101.28-25.13-105.38-1.33-4.96,4.52-6.95,8.44-2.88,4.03,2.49,128.27,129.39,164.37,166.3,6.24,6.38,14.78,9.97,23.7,9.97h74.14c2.79,0,4.45-2.26,3.7-5.05ZM1519.38,247.84c-10.06-36.67-5.74-54.48,36.23-52.95,38.67-1.48,56.49,16.44,64.24,53.11.93,3.45-1.12,6.25-4.58,6.25h-87.92c-3.51,0-7.1-2.9-7.97-6.41ZM1097.8,663.35c-17.63,18.22-58.98,72.09-69.94,128.25-.4,14.1,28.36-15.52,40.57-15.14,2.74.08,4.61,3.07,2.14,4.74-25.65,19.51-50.54,47.06-76.11,84.19-16.99,24.8-36.57,57.51-54,89.84-3.78,6.94-13.63,7.41-17.97.81-48.48-72.85-62.09-180.63-30.25-266.18,1.54-4.33,4.07-3.84,4.4.74,4.72,90.86,22-83.93,168.64-115.31,5.78-1.53,8.27,5.11,4.23,9.52-29.05,31.69-41.16,57.61-54.88,93.08-1.7,4.4,2.25,8.81,6.65,7.13,4.72-.04,98.86-49.84,76.51-21.67Z"/>
    <g class="cls-3">
      <rect class="cls-8" x="33.75" y="-359.41" width="2152.47" height="1539.4" transform="translate(2219.97 820.59) rotate(180)"/>
    </g>
  </g>
</svg>